<?xml version="1.0" encoding="UTF-8" standalone="no"?>
<!DOCTYPE svg PUBLIC "-//W3C//DTD SVG 1.1//EN"
 "http://www.w3.org/Graphics/SVG/1.1/DTD/svg11.dtd">
<!-- Generated by graphviz version 2.38.0 (20140413.2041)
 -->
<!-- Title: controllers_diagram Pages: 1 -->
<svg width="552pt" height="419pt"
 viewBox="0.00 0.00 552.00 418.50" xmlns="http://www.w3.org/2000/svg" xmlns:xlink="http://www.w3.org/1999/xlink">
<g id="graph0" class="graph" transform="scale(1 1) rotate(0) translate(199 219.5)">
<title>controllers_diagram</title>
<polygon fill="none" stroke="none" points="-199,199 -199,-219.5 353,-219.5 353,199 -199,199"/>
<!-- _diagram_info -->
<g id="node1" class="node"><title>_diagram_info</title>
<text text-anchor="start" x="143" y="-198.6" font-family="Times,serif" font-size="13.00">Controllers diagram</text>
<text text-anchor="start" x="143" y="-184.6" font-family="Times,serif" font-size="13.00">Date: Dec 21 2018 &#45; 11:23</text>
<text text-anchor="start" x="143" y="-170.6" font-family="Times,serif" font-size="13.00">Migration version: 20181221084406</text>
<text text-anchor="start" x="143" y="-156.6" font-family="Times,serif" font-size="13.00">Generated by RailRoady 1.5.3</text>
<text text-anchor="start" x="143" y="-142.6" font-family="Times,serif" font-size="13.00">http://railroady.prestonlee.com</text>
</g>
<!-- PaintsController -->
<g id="node2" class="node"><title>PaintsController</title>
<path fill="none" stroke="black" d="M-47.5,119.5C-47.5,119.5 33.5,119.5 33.5,119.5 39.5,119.5 45.5,113.5 45.5,107.5 45.5,107.5 45.5,-81.5 45.5,-81.5 45.5,-87.5 39.5,-93.5 33.5,-93.5 33.5,-93.5 -47.5,-93.5 -47.5,-93.5 -53.5,-93.5 -59.5,-87.5 -59.5,-81.5 -59.5,-81.5 -59.5,107.5 -59.5,107.5 -59.5,113.5 -53.5,119.5 -47.5,119.5"/>
<text text-anchor="middle" x="-7" y="-78.3" font-family="Times,serif" font-size="14.00">PaintsController</text>
<polyline fill="none" stroke="black" points="-59.5,-70.5 45.5,-70.5 "/>
<text text-anchor="start" x="-51.5" y="-55.3" font-family="Times,serif" font-size="14.00">create</text>
<text text-anchor="start" x="-51.5" y="-40.3" font-family="Times,serif" font-size="14.00">destroy</text>
<text text-anchor="start" x="-51.5" y="-25.3" font-family="Times,serif" font-size="14.00">edit</text>
<text text-anchor="start" x="-51.5" y="-10.3" font-family="Times,serif" font-size="14.00">index</text>
<text text-anchor="start" x="-51.5" y="4.7" font-family="Times,serif" font-size="14.00">new</text>
<text text-anchor="start" x="-51.5" y="19.7" font-family="Times,serif" font-size="14.00">show</text>
<text text-anchor="start" x="-51.5" y="34.7" font-family="Times,serif" font-size="14.00">update</text>
<polyline fill="none" stroke="black" points="-59.5,42.5 45.5,42.5 "/>
<polyline fill="none" stroke="black" points="-59.5,66.5 45.5,66.5 "/>
<text text-anchor="start" x="-51.5" y="81.7" font-family="Times,serif" font-size="14.00">_layout</text>
<text text-anchor="start" x="-51.5" y="96.7" font-family="Times,serif" font-size="14.00">find</text>
<text text-anchor="start" x="-51.5" y="111.7" font-family="Times,serif" font-size="14.00">paint_params</text>
</g>
<!-- ApplicationController -->
<g id="node3" class="node"><title>ApplicationController</title>
<path fill="none" stroke="black" d="M-78,-121C-78,-121 34,-121 34,-121 40,-121 46,-127 46,-133 46,-133 46,-203 46,-203 46,-209 40,-215 34,-215 34,-215 -78,-215 -78,-215 -84,-215 -90,-209 -90,-203 -90,-203 -90,-133 -90,-133 -90,-127 -84,-121 -78,-121"/>
<text text-anchor="middle" x="-22" y="-199.8" font-family="Times,serif" font-size="14.00">ApplicationController</text>
<polyline fill="none" stroke="black" points="-90,-192 46,-192 "/>
<polyline fill="none" stroke="black" points="-90,-168 46,-168 "/>
<polyline fill="none" stroke="black" points="-90,-144 46,-144 "/>
<text text-anchor="start" x="-82" y="-128.8" font-family="Times,serif" font-size="14.00">_layout</text>
</g>
<!-- UserparamsController -->
<g id="node4" class="node"><title>UserparamsController</title>
<path fill="none" stroke="black" d="M87.5,74.5C87.5,74.5 200.5,74.5 200.5,74.5 206.5,74.5 212.5,68.5 212.5,62.5 212.5,62.5 212.5,-96.5 212.5,-96.5 212.5,-102.5 206.5,-108.5 200.5,-108.5 200.5,-108.5 87.5,-108.5 87.5,-108.5 81.5,-108.5 75.5,-102.5 75.5,-96.5 75.5,-96.5 75.5,62.5 75.5,62.5 75.5,68.5 81.5,74.5 87.5,74.5"/>
<text text-anchor="middle" x="144" y="-93.3" font-family="Times,serif" font-size="14.00">UserparamsController</text>
<polyline fill="none" stroke="black" points="75.5,-85.5 212.5,-85.5 "/>
<text text-anchor="start" x="83.5" y="-70.3" font-family="Times,serif" font-size="14.00">create</text>
<text text-anchor="start" x="83.5" y="-55.3" font-family="Times,serif" font-size="14.00">edit</text>
<text text-anchor="start" x="83.5" y="-40.3" font-family="Times,serif" font-size="14.00">new</text>
<text text-anchor="start" x="83.5" y="-25.3" font-family="Times,serif" font-size="14.00">show</text>
<text text-anchor="start" x="83.5" y="-10.3" font-family="Times,serif" font-size="14.00">update</text>
<polyline fill="none" stroke="black" points="75.5,-2.5 212.5,-2.5 "/>
<polyline fill="none" stroke="black" points="75.5,21.5 212.5,21.5 "/>
<text text-anchor="start" x="83.5" y="36.7" font-family="Times,serif" font-size="14.00">_layout</text>
<text text-anchor="start" x="83.5" y="51.7" font-family="Times,serif" font-size="14.00">find</text>
<text text-anchor="start" x="83.5" y="66.7" font-family="Times,serif" font-size="14.00">profile_params</text>
</g>
<!-- PagesController -->
<g id="node5" class="node"><title>PagesController</title>
<path fill="none" stroke="black" d="M-183,14C-183,14 -103,14 -103,14 -97,14 -91,8 -91,2 -91,2 -91,-82 -91,-82 -91,-88 -97,-94 -103,-94 -103,-94 -183,-94 -183,-94 -189,-94 -195,-88 -195,-82 -195,-82 -195,2 -195,2 -195,8 -189,14 -183,14"/>
<text text-anchor="middle" x="-143" y="-78.8" font-family="Times,serif" font-size="14.00">PagesController</text>
<polyline fill="none" stroke="black" points="-195,-71 -91,-71 "/>
<text text-anchor="start" x="-187" y="-55.8" font-family="Times,serif" font-size="14.00">index</text>
<polyline fill="none" stroke="black" points="-195,-48 -91,-48 "/>
<polyline fill="none" stroke="black" points="-195,-24 -91,-24 "/>
<text text-anchor="start" x="-187" y="-8.8" font-family="Times,serif" font-size="14.00">_layout</text>
<text text-anchor="start" x="-187" y="6.2" font-family="Times,serif" font-size="14.00">find</text>
</g>
<!-- TagsController -->
<g id="node6" class="node"><title>TagsController</title>
<path fill="none" stroke="black" d="M87,194.5C87,194.5 161,194.5 161,194.5 167,194.5 173,188.5 173,182.5 173,182.5 173,113.5 173,113.5 173,107.5 167,101.5 161,101.5 161,101.5 87,101.5 87,101.5 81,101.5 75,107.5 75,113.5 75,113.5 75,182.5 75,182.5 75,188.5 81,194.5 87,194.5"/>
<text text-anchor="middle" x="124" y="116.7" font-family="Times,serif" font-size="14.00">TagsController</text>
<polyline fill="none" stroke="black" points="75,124.5 173,124.5 "/>
<text text-anchor="start" x="83" y="139.7" font-family="Times,serif" font-size="14.00">show</text>
<polyline fill="none" stroke="black" points="75,147.5 173,147.5 "/>
<polyline fill="none" stroke="black" points="75,171.5 173,171.5 "/>
<text text-anchor="start" x="83" y="186.7" font-family="Times,serif" font-size="14.00">_layout</text>
</g>
</g>
</svg>
