<?xml version="1.0" encoding="UTF-8" standalone="no"?>
<!DOCTYPE svg PUBLIC "-//W3C//DTD SVG 1.1//EN"
 "http://www.w3.org/Graphics/SVG/1.1/DTD/svg11.dtd">
<!-- Generated by graphviz version 2.38.0 (20140413.2041)
 -->
<!-- Title: models_diagram Pages: 1 -->
<svg width="830pt" height="551pt"
 viewBox="0.00 0.00 830.34 551.00" xmlns="http://www.w3.org/2000/svg" xmlns:xlink="http://www.w3.org/1999/xlink">
<g id="graph0" class="graph" transform="scale(1 1) rotate(0) translate(4 547)">
<title>models_diagram</title>
<polygon fill="none" stroke="none" points="-4,4 -4,-547 826.343,-547 826.343,4 -4,4"/>
<!-- _diagram_info -->
<g id="node1" class="node"><title>_diagram_info</title>
<text text-anchor="start" x="8" y="-491.6" font-family="Times,serif" font-size="13.00">Models diagram</text>
<text text-anchor="start" x="8" y="-477.6" font-family="Times,serif" font-size="13.00">Date: Dec 21 2018 &#45; 11:23</text>
<text text-anchor="start" x="8" y="-463.6" font-family="Times,serif" font-size="13.00">Migration version: 20181221084406</text>
<text text-anchor="start" x="8" y="-449.6" font-family="Times,serif" font-size="13.00">Generated by RailRoady 1.5.3</text>
<text text-anchor="start" x="8" y="-435.6" font-family="Times,serif" font-size="13.00">http://railroady.prestonlee.com</text>
</g>
<!-- AdminUser -->
<g id="node2" class="node"><title>AdminUser</title>
<path fill="none" stroke="black" d="M244,-391.5C244,-391.5 420,-391.5 420,-391.5 426,-391.5 432,-397.5 432,-403.5 432,-403.5 432,-530.5 432,-530.5 432,-536.5 426,-542.5 420,-542.5 420,-542.5 244,-542.5 244,-542.5 238,-542.5 232,-536.5 232,-530.5 232,-530.5 232,-403.5 232,-403.5 232,-397.5 238,-391.5 244,-391.5"/>
<text text-anchor="middle" x="332" y="-527.3" font-family="Times,serif" font-size="14.00">AdminUser</text>
<polyline fill="none" stroke="black" points="232,-519.5 432,-519.5 "/>
<text text-anchor="start" x="240" y="-504.3" font-family="Times,serif" font-size="14.00">id :INTEGER</text>
<text text-anchor="start" x="240" y="-489.3" font-family="Times,serif" font-size="14.00">email :varchar</text>
<text text-anchor="start" x="240" y="-474.3" font-family="Times,serif" font-size="14.00">encrypted_password :varchar</text>
<text text-anchor="start" x="240" y="-459.3" font-family="Times,serif" font-size="14.00">reset_password_token :varchar</text>
<text text-anchor="start" x="240" y="-444.3" font-family="Times,serif" font-size="14.00">reset_password_sent_at :datetime</text>
<text text-anchor="start" x="240" y="-429.3" font-family="Times,serif" font-size="14.00">remember_created_at :datetime</text>
<text text-anchor="start" x="240" y="-414.3" font-family="Times,serif" font-size="14.00">created_at :datetime</text>
<text text-anchor="start" x="240" y="-399.3" font-family="Times,serif" font-size="14.00">updated_at :datetime</text>
</g>
<!-- Category -->
<g id="node3" class="node"><title>Category</title>
<path fill="none" stroke="black" d="M581.5,-0.5C581.5,-0.5 688.5,-0.5 688.5,-0.5 694.5,-0.5 700.5,-6.5 700.5,-12.5 700.5,-12.5 700.5,-94.5 700.5,-94.5 700.5,-100.5 694.5,-106.5 688.5,-106.5 688.5,-106.5 581.5,-106.5 581.5,-106.5 575.5,-106.5 569.5,-100.5 569.5,-94.5 569.5,-94.5 569.5,-12.5 569.5,-12.5 569.5,-6.5 575.5,-0.5 581.5,-0.5"/>
<text text-anchor="middle" x="635" y="-91.3" font-family="Times,serif" font-size="14.00">Category</text>
<polyline fill="none" stroke="black" points="569.5,-83.5 700.5,-83.5 "/>
<text text-anchor="start" x="577.5" y="-68.3" font-family="Times,serif" font-size="14.00">id :INTEGER</text>
<text text-anchor="start" x="577.5" y="-53.3" font-family="Times,serif" font-size="14.00">name :varchar</text>
<text text-anchor="start" x="577.5" y="-38.3" font-family="Times,serif" font-size="14.00">paint_id :integer</text>
<text text-anchor="start" x="577.5" y="-23.3" font-family="Times,serif" font-size="14.00">created_at :datetime</text>
<text text-anchor="start" x="577.5" y="-8.3" font-family="Times,serif" font-size="14.00">updated_at :datetime</text>
</g>
<!-- User -->
<g id="node4" class="node"><title>User</title>
<path fill="none" stroke="black" d="M462,-391.5C462,-391.5 638,-391.5 638,-391.5 644,-391.5 650,-397.5 650,-403.5 650,-403.5 650,-530.5 650,-530.5 650,-536.5 644,-542.5 638,-542.5 638,-542.5 462,-542.5 462,-542.5 456,-542.5 450,-536.5 450,-530.5 450,-530.5 450,-403.5 450,-403.5 450,-397.5 456,-391.5 462,-391.5"/>
<text text-anchor="middle" x="550" y="-527.3" font-family="Times,serif" font-size="14.00">User</text>
<polyline fill="none" stroke="black" points="450,-519.5 650,-519.5 "/>
<text text-anchor="start" x="458" y="-504.3" font-family="Times,serif" font-size="14.00">id :INTEGER</text>
<text text-anchor="start" x="458" y="-489.3" font-family="Times,serif" font-size="14.00">email :varchar</text>
<text text-anchor="start" x="458" y="-474.3" font-family="Times,serif" font-size="14.00">encrypted_password :varchar</text>
<text text-anchor="start" x="458" y="-459.3" font-family="Times,serif" font-size="14.00">reset_password_token :varchar</text>
<text text-anchor="start" x="458" y="-444.3" font-family="Times,serif" font-size="14.00">reset_password_sent_at :datetime</text>
<text text-anchor="start" x="458" y="-429.3" font-family="Times,serif" font-size="14.00">remember_created_at :datetime</text>
<text text-anchor="start" x="458" y="-414.3" font-family="Times,serif" font-size="14.00">created_at :datetime</text>
<text text-anchor="start" x="458" y="-399.3" font-family="Times,serif" font-size="14.00">updated_at :datetime</text>
</g>
<!-- Userparam -->
<g id="node5" class="node"><title>Userparam</title>
<path fill="none" stroke="black" d="M389,-143.5C389,-143.5 539,-143.5 539,-143.5 545,-143.5 551,-149.5 551,-155.5 551,-155.5 551,-342.5 551,-342.5 551,-348.5 545,-354.5 539,-354.5 539,-354.5 389,-354.5 389,-354.5 383,-354.5 377,-348.5 377,-342.5 377,-342.5 377,-155.5 377,-155.5 377,-149.5 383,-143.5 389,-143.5"/>
<text text-anchor="middle" x="464" y="-339.3" font-family="Times,serif" font-size="14.00">Userparam</text>
<polyline fill="none" stroke="black" points="377,-331.5 551,-331.5 "/>
<text text-anchor="start" x="385" y="-316.3" font-family="Times,serif" font-size="14.00">id :INTEGER</text>
<text text-anchor="start" x="385" y="-301.3" font-family="Times,serif" font-size="14.00">user_id :integer</text>
<text text-anchor="start" x="385" y="-286.3" font-family="Times,serif" font-size="14.00">firstname :varchar</text>
<text text-anchor="start" x="385" y="-271.3" font-family="Times,serif" font-size="14.00">lastname :varchar</text>
<text text-anchor="start" x="385" y="-256.3" font-family="Times,serif" font-size="14.00">created_at :datetime</text>
<text text-anchor="start" x="385" y="-241.3" font-family="Times,serif" font-size="14.00">updated_at :datetime</text>
<text text-anchor="start" x="385" y="-226.3" font-family="Times,serif" font-size="14.00">place :varchar</text>
<text text-anchor="start" x="385" y="-211.3" font-family="Times,serif" font-size="14.00">avatar_file_name :varchar</text>
<text text-anchor="start" x="385" y="-196.3" font-family="Times,serif" font-size="14.00">avatar_content_type :varchar</text>
<text text-anchor="start" x="385" y="-181.3" font-family="Times,serif" font-size="14.00">avatar_file_size :integer</text>
<text text-anchor="start" x="385" y="-166.3" font-family="Times,serif" font-size="14.00">avatar_updated_at :datetime</text>
<text text-anchor="start" x="385" y="-151.3" font-family="Times,serif" font-size="14.00">email :varchar</text>
</g>
<!-- User&#45;&gt;Userparam -->
<g id="edge1" class="edge"><title>User&#45;&gt;Userparam</title>
<path fill="none" stroke="#d167a8" d="M517.274,-383.805C514.494,-376.822 511.653,-369.687 508.802,-362.526"/>
<ellipse fill="none" stroke="#d167a8" cx="518.804" cy="-387.646" rx="4.00001" ry="4.00001"/>
<ellipse fill="#d167a8" stroke="#d167a8" cx="507.186" cy="-358.467" rx="4.00001" ry="4.00001"/>
</g>
<!-- Paint -->
<g id="node7" class="node"><title>Paint</title>
<path fill="none" stroke="black" d="M581.5,-166C581.5,-166 688.5,-166 688.5,-166 694.5,-166 700.5,-172 700.5,-178 700.5,-178 700.5,-320 700.5,-320 700.5,-326 694.5,-332 688.5,-332 688.5,-332 581.5,-332 581.5,-332 575.5,-332 569.5,-326 569.5,-320 569.5,-320 569.5,-178 569.5,-178 569.5,-172 575.5,-166 581.5,-166"/>
<text text-anchor="middle" x="635" y="-316.8" font-family="Times,serif" font-size="14.00">Paint</text>
<polyline fill="none" stroke="black" points="569.5,-309 700.5,-309 "/>
<text text-anchor="start" x="577.5" y="-293.8" font-family="Times,serif" font-size="14.00">id :integer</text>
<text text-anchor="start" x="577.5" y="-278.8" font-family="Times,serif" font-size="14.00">name :varchar</text>
<text text-anchor="start" x="577.5" y="-263.8" font-family="Times,serif" font-size="14.00">description :varchar</text>
<text text-anchor="start" x="577.5" y="-248.8" font-family="Times,serif" font-size="14.00">price :integer</text>
<text text-anchor="start" x="577.5" y="-233.8" font-family="Times,serif" font-size="14.00">created_at :datetime</text>
<text text-anchor="start" x="577.5" y="-218.8" font-family="Times,serif" font-size="14.00">updated_at :datetime</text>
<text text-anchor="start" x="577.5" y="-203.8" font-family="Times,serif" font-size="14.00">picture :varchar</text>
<text text-anchor="start" x="577.5" y="-188.8" font-family="Times,serif" font-size="14.00">user_id :integer</text>
<text text-anchor="start" x="577.5" y="-173.8" font-family="Times,serif" font-size="14.00">category_id :integer</text>
</g>
<!-- User&#45;&gt;Paint -->
<g id="edge2" class="edge"><title>User&#45;&gt;Paint</title>
<path fill="none" stroke="#9cdf9a" d="M582.403,-383.659C587.812,-369.914 593.452,-355.58 598.946,-341.62"/>
<ellipse fill="none" stroke="#9cdf9a" cx="580.836" cy="-387.64" rx="4.00001" ry="4.00001"/>
<polygon fill="#9cdf9a" stroke="#9cdf9a" points="599.059,-341.332 606.908,-333.675 600.89,-336.679 602.721,-332.027 602.721,-332.027 602.721,-332.027 600.89,-336.679 598.534,-330.379 599.059,-341.332 599.059,-341.332"/>
</g>
<!-- ApplicationRecord -->
<g id="node6" class="node"><title>ApplicationRecord</title>
<ellipse fill="none" stroke="black" cx="745" cy="-467" rx="77.1866" ry="18"/>
<text text-anchor="middle" x="745" y="-463.3" font-family="Times,serif" font-size="14.00">ApplicationRecord</text>
</g>
<!-- Paint&#45;&gt;Category -->
<g id="edge3" class="edge"><title>Paint&#45;&gt;Category</title>
<path fill="none" stroke="#190295" d="M635,-157.898C635,-143.354 635,-128.608 635,-114.985"/>
<ellipse fill="none" stroke="#190295" cx="635" cy="-161.939" rx="4" ry="4"/>
<ellipse fill="#190295" stroke="#190295" cx="635" cy="-110.659" rx="4" ry="4"/>
</g>
</g>
</svg>
