<?xml version="1.0" encoding="UTF-8" standalone="no"?>
<!DOCTYPE svg PUBLIC "-//W3C//DTD SVG 1.1//EN"
 "http://www.w3.org/Graphics/SVG/1.1/DTD/svg11.dtd">
<!-- Generated by graphviz version 2.38.0 (20140413.2041)
 -->
<!-- Title: models_diagram Pages: 1 -->
<svg width="589pt" height="230pt"
 viewBox="0.00 0.00 589.34 230.00" xmlns="http://www.w3.org/2000/svg" xmlns:xlink="http://www.w3.org/1999/xlink">
<g id="graph0" class="graph" transform="scale(1 1) rotate(0) translate(4 226)">
<title>models_diagram</title>
<polygon fill="none" stroke="none" points="-4,4 -4,-226 585.343,-226 585.343,4 -4,4"/>
<!-- _diagram_info -->
<g id="node1" class="node"><title>_diagram_info</title>
<text text-anchor="start" x="8" y="-207.6" font-family="Times,serif" font-size="13.00">Models diagram</text>
<text text-anchor="start" x="8" y="-193.6" font-family="Times,serif" font-size="13.00">Date: Dec 21 2018 &#45; 11:23</text>
<text text-anchor="start" x="8" y="-179.6" font-family="Times,serif" font-size="13.00">Migration version: 20181221084406</text>
<text text-anchor="start" x="8" y="-165.6" font-family="Times,serif" font-size="13.00">Generated by RailRoady 1.5.3</text>
<text text-anchor="start" x="8" y="-151.6" font-family="Times,serif" font-size="13.00">http://railroady.prestonlee.com</text>
</g>
<!-- AdminUser -->
<g id="node2" class="node"><title>AdminUser</title>
<ellipse fill="none" stroke="black" cx="284" cy="-183" rx="51.9908" ry="18"/>
<text text-anchor="middle" x="284" y="-179.3" font-family="Times,serif" font-size="14.00">AdminUser</text>
</g>
<!-- Category -->
<g id="node3" class="node"><title>Category</title>
<ellipse fill="none" stroke="black" cx="429" cy="-18" rx="42.7926" ry="18"/>
<text text-anchor="middle" x="429" y="-14.3" font-family="Times,serif" font-size="14.00">Category</text>
</g>
<!-- User -->
<g id="node4" class="node"><title>User</title>
<ellipse fill="none" stroke="black" cx="381" cy="-183" rx="27.0966" ry="18"/>
<text text-anchor="middle" x="381" y="-179.3" font-family="Times,serif" font-size="14.00">User</text>
</g>
<!-- Userparam -->
<g id="node5" class="node"><title>Userparam</title>
<ellipse fill="none" stroke="black" cx="332" cy="-90" rx="50.0912" ry="18"/>
<text text-anchor="middle" x="332" y="-86.3" font-family="Times,serif" font-size="14.00">Userparam</text>
</g>
<!-- User&#45;&gt;Userparam -->
<g id="edge1" class="edge"><title>User&#45;&gt;Userparam</title>
<path fill="none" stroke="#074c68" d="M368.27,-158.359C361.057,-144.962 352.057,-128.249 344.828,-114.823"/>
<ellipse fill="none" stroke="#074c68" cx="370.343" cy="-162.209" rx="4.00002" ry="4.00002"/>
<ellipse fill="#074c68" stroke="#074c68" cx="342.912" cy="-111.266" rx="4.00002" ry="4.00002"/>
</g>
<!-- Paint -->
<g id="node7" class="node"><title>Paint</title>
<ellipse fill="none" stroke="black" cx="429" cy="-90" rx="28.6953" ry="18"/>
<text text-anchor="middle" x="429" y="-86.3" font-family="Times,serif" font-size="14.00">Paint</text>
</g>
<!-- User&#45;&gt;Paint -->
<g id="edge2" class="edge"><title>User&#45;&gt;Paint</title>
<path fill="none" stroke="#29367c" d="M393.496,-158.31C400.281,-145.446 408.674,-129.536 415.595,-116.414"/>
<ellipse fill="none" stroke="#29367c" cx="391.448" cy="-162.193" rx="4.00002" ry="4.00002"/>
<polygon fill="#29367c" stroke="#29367c" points="415.665,-116.28 424.311,-109.534 417.998,-111.857 420.331,-107.435 420.331,-107.435 420.331,-107.435 417.998,-111.857 416.351,-105.335 415.665,-116.28 415.665,-116.28"/>
</g>
<!-- ApplicationRecord -->
<g id="node6" class="node"><title>ApplicationRecord</title>
<ellipse fill="none" stroke="black" cx="504" cy="-183" rx="77.1866" ry="18"/>
<text text-anchor="middle" x="504" y="-179.3" font-family="Times,serif" font-size="14.00">ApplicationRecord</text>
</g>
<!-- Paint&#45;&gt;Category -->
<g id="edge3" class="edge"><title>Paint&#45;&gt;Category</title>
<path fill="none" stroke="#7dc4a2" d="M429,-63.6398C429,-57.348 429,-50.6053 429,-44.3156"/>
<ellipse fill="none" stroke="#7dc4a2" cx="429" cy="-67.6966" rx="4" ry="4"/>
<ellipse fill="#7dc4a2" stroke="#7dc4a2" cx="429" cy="-40.1043" rx="4" ry="4"/>
</g>
</g>
</svg>
